<?xml version="1.0" encoding="UTF-8"?>
<!DOCTYPE svg PUBLIC "-//W3C//DTD SVG 1.1//EN" "http://www.w3.org/Graphics/SVG/1.1/DTD/svg11.dtd">
<!-- Creator: CorelDRAW -->
<svg xmlns="http://www.w3.org/2000/svg" xml:space="preserve" width="80mm" height="19mm" version="1.1" style="shape-rendering:geometricPrecision; text-rendering:geometricPrecision; image-rendering:optimizeQuality; fill-rule:evenodd; clip-rule:evenodd"
viewBox="0 0 8000 1900"
 xmlns:xlink="http://www.w3.org/1999/xlink"
 xmlns:xodm="http://www.corel.com/coreldraw/odm/2003">
 <defs>
  <style type="text/css">
   <![CDATA[
    .fil3 {fill:#0F25CF}
    .fil2 {fill:#283592}
    .fil4 {fill:#4D60EB}
    .fil1 {fill:#1C34E6;fill-rule:nonzero}
    .fil0 {fill:#283592;fill-rule:nonzero}
   ]]>
  </style>
 </defs>
 <g id="Camada_x0020_1">
  <metadata id="CorelCorpID_0Corel-Layer"/>
  <g id="_105553287912928">
   <path class="fil0" d="M489.94 646.08c102.52,0 154.65,46.92 159.86,142.49l0 587.32 232.84 0 0 -583.85c1.74,-95.57 53.87,-142.48 156.39,-142.48 102.52,0 154.65,46.91 159.86,142.48l0 472.64c0,72.98 38.23,109.47 114.69,114.69l119.89 0 0 -540.41c1.74,-262.38 -128.58,-392.71 -390.96,-392.71 -118.16,0 -208.52,24.33 -274.55,74.72 -66.03,-52.13 -156.39,-78.19 -274.55,-78.19 -262.38,0 -394.44,130.32 -394.44,392.7l0 540.41 234.58 0 0 -587.32c1.74,-95.57 53.87,-142.49 156.39,-142.49zm1067.08 893.15l0 189.4c6.95,5.21 38.23,6.95 97.31,6.95 191.14,0 246.74,-52.13 302.34,-203.3l363.17 -1075.6 -161.6 0c-59.08,0 -95.57,27.8 -109.47,81.67l-159.86 556.04 -182.46 -637.71 -262.38 0 312.78 898.36c36.49,121.63 -8.69,184.19 -135.54,184.19l-64.29 0z"/>
   <path class="fil1" d="M2554.19 1061.4l-236.32 0c0,106 34.76,185.93 104.26,238.06 62.56,53.86 159.86,81.67 288.45,81.67 243.27,0 420.51,-83.41 420.51,-309.3 0,-62.56 -20.85,-118.16 -64.29,-163.34 -50.4,-46.92 -152.92,-86.88 -309.3,-118.16 -119.9,-22.59 -178.98,-59.08 -178.98,-106 0,-46.91 45.18,-71.24 135.53,-71.24 76.46,0 123.38,22.59 139.02,62.55 13.9,36.5 48.65,55.61 102.52,57.35l145.96 0c-5.21,-95.57 -41.7,-170.29 -109.47,-224.16 -69.51,-52.13 -163.34,-78.19 -281.5,-78.19 -210.26,3.47 -366.64,97.31 -366.64,295.4 1.74,144.22 105.99,234.58 309.3,271.07 158.12,27.8 238.05,66.03 238.05,112.94 0,59.08 -48.65,86.89 -145.96,86.89 -112.94,0 -185.93,-34.76 -191.14,-135.54zm1436.82 20.85l-170.29 0c-31.28,0 -57.35,10.43 -78.2,33.02 -45.18,43.44 -95.57,66.03 -149.43,66.03 -112.95,0 -173.77,-71.25 -182.46,-211.99l594.28 0c17.37,-359.7 -119.9,-538.67 -411.82,-538.67 -279.76,1.73 -420.51,158.12 -420.51,470.9 0,312.77 139.01,474.37 417.03,483.06 225.89,0 351,-107.73 401.4,-302.35zm-401.4 -462.21c99.05,0 156.39,62.56 170.29,184.19l-345.79 0c17.38,-121.63 76.45,-184.19 175.5,-184.19zm1282.17 462.21l-173.77 0c-29.54,0 -55.6,10.43 -78.19,33.02 -38.23,43.44 -85.15,66.03 -139.01,66.03 -128.59,1.74 -192.88,-90.36 -192.88,-272.81 0,-182.45 60.82,-274.55 182.45,-274.55 72.98,0 121.64,33.02 149.44,95.57l251.96 0c-39.97,-199.83 -172.03,-298.87 -394.45,-298.87 -283.23,5.21 -423.98,163.34 -423.98,477.85 6.95,316.25 149.43,476.11 427.46,476.11 213.73,5.21 349.26,-114.68 390.97,-302.35zm842.54 -637.71l-118.16 0c-76.46,0 -112.95,38.23 -111.21,114.68l0 484.8c0,102.53 -52.13,152.92 -156.39,152.92 -104.26,0 -156.39,-50.39 -156.39,-152.92l0 -599.48 -231.1 0 0 552.57c0,154.65 39.96,255.43 119.89,305.82 79.94,52.13 165.08,78.2 260.65,78.2 99.05,0 189.4,-24.33 271.07,-71.25 81.67,-50.39 121.64,-154.65 121.64,-312.77l0 -552.57zm48.44 919.21l234.58 0 0 -477.85c0,-133.8 64.29,-201.57 192.88,-201.57l78.19 0 0 -239.79 -33.01 0c-307.57,0 -465.69,147.7 -472.64,444.83l0 474.38zm595.8 -1181.6l0 180.72 231.1 0 0 -67.77c1.74,-74.72 -34.75,-112.95 -111.21,-112.95l-119.89 0zm0 262.39l0 919.21 231.1 0 0 -808c0,-74.72 -36.49,-111.21 -111.21,-111.21l-119.89 0zm679.2 50.39l0 -50.39 -139.01 0 0 -145.96c0,-60.82 -50.39,-116.43 -111.21,-116.43l-119.89 0 0 1004.36c-1.74,102.52 39.96,156.39 126.85,165.08 86.88,8.68 168.55,8.68 243.26,1.73l0 -175.5 -71.24 0c-45.18,0 -67.77,-20.85 -67.77,-59.08l0 -509.13 24.33 0c64.29,0 114.68,-48.65 114.68,-114.68zm140.55 1032.16l0 189.4c6.95,5.21 38.23,6.95 97.31,6.95 191.14,0 246.74,-52.13 302.34,-203.3l363.17 -1075.6 -161.6 0c-59.08,0 -95.57,27.8 -109.47,81.67l-159.86 556.04 -182.46 -637.71 -262.38 0 312.78 898.36c36.49,121.63 -8.69,184.19 -135.54,184.19l-64.29 0z"/>
   <g>
    <polygon class="fil2" points="2350.42,1543.61 4215.61,1543.61 4215.61,1723.83 2350.42,1723.83 "/>
    <polygon class="fil3" points="4175.96,1537.98 6099.34,1537.98 6099.34,1723.83 4175.96,1723.83 "/>
    <polygon class="fil4" points="5939.67,1537.98 7017.05,1537.98 7017.05,1723.83 5939.67,1723.83 "/>
   </g>
  </g>
 </g>
</svg>
