<?xml version="1.0" encoding="UTF-8"?>
<!DOCTYPE svg PUBLIC "-//W3C//DTD SVG 1.1//EN" "http://www.w3.org/Graphics/SVG/1.1/DTD/svg11.dtd">
<!-- Creator: CorelDRAW -->
<svg xmlns="http://www.w3.org/2000/svg" xml:space="preserve" width="210mm" height="297mm" version="1.1" style="shape-rendering:geometricPrecision; text-rendering:geometricPrecision; image-rendering:optimizeQuality; fill-rule:evenodd; clip-rule:evenodd"
viewBox="0 0 21000 29700"
 xmlns:xlink="http://www.w3.org/1999/xlink"
 xmlns:xodm="http://www.corel.com/coreldraw/odm/2003">
 <defs>
  <style type="text/css">
   <![CDATA[
    .fil2 {fill:#1F5C91}
    .fil3 {fill:#2470B3}
    .fil4 {fill:#3987CC}
    .fil1 {fill:black;fill-rule:nonzero}
    .fil0 {fill:#124673;fill-rule:nonzero}
   ]]>
  </style>
 </defs>
 <g id="Camada_x0020_1">
  <metadata id="CorelCorpID_0Corel-Layer"/>
  <path class="fil0" d="M7267.59 12423.42c85.15,0 128.44,38.96 132.77,118.34l0 487.77 193.38 0 0 -484.89c1.44,-79.37 44.73,-118.33 129.88,-118.33 85.14,0 128.43,38.96 132.76,118.33l0 392.53c0,60.61 31.75,90.92 95.25,95.25l99.58 0 0 -448.81c1.44,-217.92 -106.8,-326.15 -324.71,-326.15 -98.13,0 -173.17,20.2 -228.01,62.05 -54.84,-43.29 -129.88,-64.94 -228.01,-64.94 -217.91,0 -327.59,108.24 -327.59,326.15l0 448.81 194.82 0 0 -487.77c1.44,-79.38 44.74,-118.34 129.88,-118.34zm932.26 741.76l0 157.3c5.77,4.33 31.75,5.78 80.82,5.78 158.74,0 204.92,-43.3 251.1,-168.85l301.61 -893.29 -134.21 0c-49.07,0 -79.37,23.09 -90.92,67.83l-132.76 461.79 -151.53 -529.62 -217.91 0 259.76 746.09c30.31,101.02 -7.22,152.97 -112.56,152.97l-53.4 0z"/>
  <path class="fil1" d="M9251.37 12358.48l0 -44.74 -124.11 0 0 -50.51c4.33,-37.52 28.86,-56.28 73.6,-56.28l50.51 0 0 -158.74c-28.87,-4.33 -59.17,-5.77 -92.36,-5.77 -142.87,0 -228.02,57.72 -220.8,203.48l0 783.61 191.93 0 0 -574.36 25.98 0c51.95,0 95.25,-44.74 95.25,-96.69zm737.43 -92.36l-98.13 0c-63.5,0 -93.81,31.75 -92.36,95.25l0 402.63c0,85.14 -43.3,126.99 -129.89,126.99 -86.58,0 -129.88,-41.85 -129.88,-126.99l0 -497.88 -191.93 0 0 458.91c0,128.44 33.19,212.14 99.57,253.99 66.39,43.29 137.1,64.94 216.47,64.94 82.26,0 157.3,-20.2 225.13,-59.17 67.83,-41.85 101.02,-128.43 101.02,-259.76l0 -458.91zm734.55 763.41l0 -448.81c1.44,-217.91 -105.35,-326.15 -323.26,-326.15 -217.91,0 -327.59,108.24 -327.59,326.15l0 448.81 194.82 0 0 -487.77c1.44,-79.38 44.74,-118.34 129.88,-118.34 85.15,0 128.44,38.96 132.77,118.34l0 392.52c0,60.62 31.75,90.92 95.24,95.25l98.14 0zm438.7 -603.22c103.91,0 157.3,72.15 161.63,219.35 0,154.41 -54.84,232.34 -164.52,232.34 -109.67,0 -161.63,-77.93 -160.18,-232.34 5.77,-147.2 59.17,-219.35 163.07,-219.35zm256.88 -378.1l-95.25 0 0 324.7c-49.07,-79.37 -122.67,-118.34 -217.91,-118.34 -203.48,7.22 -304.5,139.99 -304.5,399.75 0,253.99 118.34,382.43 355.01,386.75 238.11,1.45 357.89,-112.56 357.89,-342.01l0 -554.16c0,-51.95 -43.29,-96.69 -95.24,-96.69zm356.45 730.22l-196.27 0c0,88.03 28.86,154.41 86.59,197.7 51.95,44.74 132.77,67.83 239.56,67.83 202.03,0 349.23,-69.27 349.23,-256.87 0,-51.96 -17.31,-98.14 -53.39,-135.66 -41.85,-38.96 -127,-72.15 -256.88,-98.13 -99.57,-18.76 -148.64,-49.07 -148.64,-88.03 0,-38.96 37.52,-59.17 112.56,-59.17 63.5,0 102.47,18.76 115.45,51.95 11.55,30.31 40.41,46.18 85.15,47.63l121.22 0c-4.33,-79.37 -34.64,-141.43 -90.92,-186.17 -57.72,-43.29 -135.65,-64.94 -233.78,-64.94 -174.62,2.89 -304.5,80.82 -304.5,245.33 1.44,119.78 88.03,194.83 256.87,225.13 131.33,23.09 197.71,54.84 197.71,93.8 0,49.07 -40.41,72.16 -121.22,72.16 -93.8,0 -154.41,-28.86 -158.74,-112.56z"/>
  <polygon class="fil2" points="8932.98,13340.79 10261.03,13340.79 10261.03,13211.98 8932.98,13211.98 "/>
  <polygon class="fil3" points="10232.8,13340.79 11602.29,13340.79 11602.29,13207.97 10232.8,13207.97 "/>
  <polygon class="fil4" points="11488.62,13340.79 12255.74,13340.79 12255.74,13207.97 11488.62,13207.97 "/>
 </g>
</svg>
