<?xml version="1.0" encoding="UTF-8"?>
<!DOCTYPE svg PUBLIC "-//W3C//DTD SVG 1.1//EN" "http://www.w3.org/Graphics/SVG/1.1/DTD/svg11.dtd">
<!-- Creator: CorelDRAW -->
<svg xmlns="http://www.w3.org/2000/svg" xml:space="preserve" width="54mm" height="13mm" version="1.1" style="shape-rendering:geometricPrecision; text-rendering:geometricPrecision; image-rendering:optimizeQuality; fill-rule:evenodd; clip-rule:evenodd"
viewBox="0 0 5400 1300"
 xmlns:xlink="http://www.w3.org/1999/xlink"
 xmlns:xodm="http://www.corel.com/coreldraw/odm/2003">
 <defs>
  <style type="text/css">
   <![CDATA[
    .fil2 {fill:#1F5C91}
    .fil3 {fill:#2470B3}
    .fil4 {fill:#3987CC}
    .fil1 {fill:black;fill-rule:nonzero}
    .fil0 {fill:#124673;fill-rule:nonzero}
   ]]>
  </style>
 </defs>
 <g id="Camada_x0020_1">
  <metadata id="CorelCorpID_0Corel-Layer"/>
  <g id="_105553165188032">
   <path class="fil0" d="M611.54 422.99c76.44,0 115.3,34.97 119.19,106.23l0 437.87 173.6 0 0 -435.28c1.29,-71.26 40.15,-106.23 116.59,-106.23 76.43,0 115.29,34.97 119.18,106.23l0 352.37c0,54.41 28.5,81.62 85.51,85.51l89.39 0 0 -402.9c1.29,-195.63 -95.87,-292.79 -291.49,-292.79 -88.09,0 -155.46,18.14 -204.69,55.71 -49.23,-38.87 -116.59,-58.3 -204.68,-58.3 -195.62,0 -294.08,97.17 -294.08,292.78l0 402.9 174.89 0 0 -437.87c1.29,-71.26 40.16,-106.23 116.59,-106.23zm836.89 665.87l0 141.21c5.18,3.89 28.51,5.19 72.56,5.19 142.5,0 183.95,-38.87 225.41,-151.57l270.75 -801.91 -120.48 0c-44.05,0 -71.25,20.73 -81.61,60.89l-119.18 414.55 -136.03 -475.44 -195.62 0 233.19 669.76c27.21,90.69 -6.48,137.32 -101.05,137.32l-47.94 0z"/>
   <path class="fil1" d="M2392.38 364.69l0 -40.16 -111.41 0 0 -45.35c3.89,-33.68 25.91,-50.52 66.07,-50.52l45.34 0 0 -142.5c-25.91,-3.89 -53.11,-5.18 -82.91,-5.18 -128.25,0 -204.69,51.82 -198.21,182.66l0 703.45 172.3 0 0 -515.6 23.32 0c46.63,0 85.5,-40.17 85.5,-86.8zm662 -82.91l-88.1 0c-57,0 -84.21,28.5 -82.91,85.5l0 361.45c0,76.43 -38.87,113.99 -116.6,113.99 -77.72,0 -116.59,-37.56 -116.59,-113.99l0 -446.95 -172.3 0 0 411.96c0,115.3 29.8,190.44 89.39,228.01 59.59,38.86 123.07,58.3 194.32,58.3 73.85,0 141.21,-18.14 202.1,-53.12 60.89,-37.57 90.69,-115.29 90.69,-233.19l0 -411.96zm659.4 685.31l0 -402.9c1.3,-195.61 -94.57,-292.78 -290.19,-292.78 -195.62,0 -294.08,97.17 -294.08,292.78l0 402.9 174.89 0 0 -437.87c1.3,-71.26 40.17,-106.23 116.6,-106.23 76.44,0 115.3,34.97 119.19,106.23l0 352.37c0,54.41 28.5,81.61 85.49,85.5l88.1 0zm393.82 -541.51c93.28,0 141.21,64.77 145.1,196.91 0,138.62 -49.23,208.57 -147.69,208.57 -98.45,0 -145.1,-69.95 -143.79,-208.57 5.18,-132.14 53.11,-196.91 146.38,-196.91zm230.61 -339.42l-85.51 0 0 291.48c-44.05,-71.25 -110.12,-106.23 -195.62,-106.23 -182.66,6.48 -273.35,125.67 -273.35,358.86 0,228 106.24,343.3 318.69,347.18 213.76,1.3 321.28,-101.04 321.28,-307.02l0 -497.47c0,-46.64 -38.86,-86.8 -85.49,-86.8zm319.98 655.52l-176.19 0c0,79.02 25.91,138.61 77.73,177.47 46.64,40.17 119.19,60.9 215.05,60.9 181.37,0 313.51,-62.19 313.51,-230.6 0,-46.64 -15.54,-88.1 -47.93,-121.78 -37.57,-34.97 -114.01,-64.77 -230.6,-88.09 -89.39,-16.84 -133.44,-44.05 -133.44,-79.03 0,-34.97 33.69,-53.11 101.05,-53.11 57,0 91.99,16.84 103.64,46.63 10.37,27.21 36.28,41.46 76.44,42.76l108.82 0c-3.89,-71.25 -31.1,-126.96 -81.62,-167.12 -51.82,-38.87 -121.77,-58.3 -209.87,-58.3 -156.75,2.59 -273.35,72.55 -273.35,220.23 1.3,107.53 79.03,174.9 230.6,202.1 117.89,20.73 177.48,49.23 177.48,84.21 0,44.05 -36.27,64.77 -108.82,64.77 -84.2,0 -138.61,-25.9 -142.5,-101.04z"/>
   <polygon class="fil2" points="2106.57,1246.51 3298.76,1246.51 3298.76,1130.88 2106.57,1130.88 "/>
   <polygon class="fil3" points="3273.42,1246.51 4502.81,1246.51 4502.81,1127.28 3273.42,1127.28 "/>
   <polygon class="fil4" points="4400.77,1246.51 5089.41,1246.51 5089.41,1127.28 4400.77,1127.28 "/>
  </g>
 </g>
</svg>
